# xmcd
#
# Track frame offsets:
#	150
#	15323
#	27959
#	45687
#	63309
#	74041
#	89587
#	103671
#	127654
#	141975
#	151993
#	170634
#
# Disc length: 2460 seconds
#
# Revision: 0
# Processed by: cddbd v1.5.2PL0 Copyright (c) Steve Scherf et al.
# Submitted via: EasyCDDAExtractor 5.0.2.1
#
DISCID=a1099a0c
DTITLE=Texas Renegade - Roots
DYEAR=2000
DGENRE=Country
TTITLE0=Place caled home
TTITLE1=Austin
TTITLE2=Looking into mirrors
TTITLE3=England to Texas
TTITLE4=Comin' home
TTITLE5=You told me not to drink
TTITLE6=Cowboy of the 90's
TTITLE7=Why
TTITLE8=Done to death
TTITLE9=One night
TTITLE10=Tired eyes
TTITLE11=Exit 109
EXTD=
EXTT0=
EXTT1=
EXTT2=
EXTT3=
EXTT4=
EXTT5=
EXTT6=
EXTT7=
EXTT8=
EXTT9=
EXTT10=
EXTT11=
PLAYORDER=
